<?xml version="1.0" encoding="utf-8"?>
<!-- Generator: Adobe Illustrator 18.1.1, SVG Export Plug-In . SVG Version: 6.00 Build 0)  -->
<svg version="1.1"
	 id="Camada_1" xmlns:rdf="http://www.w3.org/1999/02/22-rdf-syntax-ns#" xmlns:cc="http://creativecommons.org/ns#" xmlns:dc="http://purl.org/dc/elements/1.1/"
	 xmlns="http://www.w3.org/2000/svg" xmlns:xlink="http://www.w3.org/1999/xlink" x="0px" y="0px" viewBox="-404 579.5 32 32"
	 enable-background="new -404 579.5 32 32" xml:space="preserve">
<g transform="matrix( 1.00311279296875, 0, 0, 1.00311279296875, 0.3,0.3) ">
	<g>
		<g id="Layer2_0_FILL">
			<path fill="#FFFFFF" d="M-376.1,577.5H-398c-3.4,0-5,1.7-5,5v21.9c0,3.3,1.7,5,5,5h21.9c3.4,0,5-1.7,5-5v-21.9
				C-371.1,579.1-372.8,577.5-376.1,577.5z"/>
		</g>
	</g>
</g>
<g transform="matrix( 1, 0, 0, 1, 0,0) ">
	<g>
		<g id="Layer1_0_FILL">
			<path fill="#D21D25" d="M-391,594.8h-1.7v1.7h1.7V594.8 M-388.1,595.7V594h-1.7v1.7H-388.1 M-388.8,586.7h1.2v-1.2h-1.2V586.7
				 M-386.6,590.4h-2.7v2.7h2.7V590.4 M-386.1,588.8v-1.1h-1.1v1.1H-386.1 M-384.3,586.8h-0.9v0.9h0.9V586.8 M-385.8,586.7v-0.9
				h-0.9v0.9H-385.8 M-390.4,590.8h-2.1v2.1h2.1V590.8 M-391.6,588v1.4h1.5V588H-391.6 M-383.7,593.6v-1.7h-1.7v1.7H-383.7
				 M-383.3,589v1h-1.5v-0.9c-0.2,0.1-0.4,0.1-0.6,0.2c-0.2-0.2-0.4-0.4-0.6-0.6v0.4h-1.5v-1.4c-1.2-0.6-2.4-0.8-3.5-0.5
				c-2.2,0.5-3.8,1.7-4.7,3.8c-1.5-0.2-3,0.2-4.5,1.2c-1.5,1.1-2.3,2.6-2.3,4.5h1.9c-0.2-1.4,0.4-2.5,1.7-3.5
				c1.3-0.7,2.7-1.1,4.1-1.1c0.6-1.6,1.6-2.7,3-3.2v-1.2h2v0.7c1.5-0.1,2.9,0.7,4.2,2.1c1.1-0.5,2.2-0.5,3.3,0.1
				c1.1,0.6,1.8,1.4,2.1,2.7c2.5-0.4,4.2,0.6,5,3c0.6,1.9,0.1,3.6-1.3,5c-0.9,0.8-2.1,1.1-3.6,0.9l-0.3,1.3c1.9,0.3,3.6-0.2,5-1.3
				c1.9-1.9,2.4-4.2,1.3-7.1c-1.2-2.2-3-3.2-5.3-3.1c-0.2-1.3-0.9-2.2-2-2.7C-382.2,589.2-382.7,589-383.3,589 M-383.5,589.8v-1.1
				h-1.1v1.1H-383.5z"/>
		</g>
	</g>
</g>
</svg>
